#!OML:ASF F:\VICON\USERDATA\INSTALL\SteveWalk\SteveWalk.ASF
:FULLY-SPECIFIED
:DEGREES
242
root 0.138937 16.5341 8.68445 16.2996 2.31867 0.324816
lowerback -14.7708 -0.199671 0.790073
upperback -4.51231 -0.45569 1.8206
thorax 3.51557 -0.218278 1.38217
lowerneck -4.08785 -1.48499 -0.785711
upperneck 11.9438 -1.76598 -1.46391
head 4.68333 -0.978657 -0.450818
rclavicle -3.78933e-016 8.74653e-015
rhumerus -29.5412 -13.5604 -79.9321
rradius 30.7866
rwrist -5.51314
rhand -17.383 -33.9692
rfingers 7.12502
rthumb 8.86572 -63.763
lclavicle -3.78933e-016 8.74653e-015
lhumerus -38.517 8.90308 84.2468
lradius 20.1315
lwrist -11.2131
lhand -18.4415 -18.6467
lfingers 7.12502
lthumb 7.84424 11.1878
rfemur -27.5508 -4.87966 25.1118
rtibia 34.9993
rfoot -23.6159 5.40036
rtoes -6.0256
lfemur -42.6794 3.59599 -21.6867
ltibia 67.7735
lfoot -6.82408 3.41447
ltoes -8.51069
243
root 0.120679 16.514 8.85528 16.9096 2.33788 0.370044
lowerback -14.9764 -0.214057 0.548871
upperback -4.72991 -0.437887 1.80923
thorax 3.39842 -0.208721 1.50979
lowerneck -4.26705 -1.43806 -0.555259
upperneck 12.0429 -1.69856 -1.63923
head 4.75288 -0.945 -0.550901
rclavicle -1.67911e-014 -3.18055e-015
rhumerus -28.2731 -11.607 -80.904
rradius 32.3479
rwrist -7.63174
rhand -18.3307 -32.9618
rfingers 7.12502
rthumb 7.9512 -62.7922
lclavicle -1.67911e-014 -3.18055e-015
lhumerus -39.4179 10.9538 82.7585
lradius 18.7577
lwrist -13.9829
lhand -17.497 -18.308
lfingers 7.12502
lthumb 8.75571 11.4904
rfemur -27.5971 -5.27935 25.3002
rtibia 35.047
rfoot -24.0947 5.60373
rtoes -4.72929
lfemur -44.5726 3.54155 -21.9595
ltibia 66.2995
lfoot -6.99951 3.85801
ltoes -7.97726
244
root 0.122627 16.5019 9.0469 17.1901 2.41502 0.147559
lowerback -15.2406 -0.161532 0.865417
upperback -4.76457 -0.420259 1.83438
thorax 3.50115 -0.199946 1.36034
lowerneck -4.12735 -1.40681 -0.502242
upperneck 11.824 -1.65173 -1.7537
head 4.64258 -0.923747 -0.59251
rclavicle -6.83322e-015 2.06736e-014
rhumerus -27.2279 -9.7321 -81.6528
rradius 34.0874
rwrist -9.43557
rhand -18.6459 -32.3891
rfingers 7.12502
rthumb 7.64693 -62.2309
lclavicle -6.83322e-015 2.06736e-014
lhumerus -40.3299 13.1177 81.1048
lradius 17.3976
lwrist -16.7711
lhand -16.6609 -17.9098
lfingers 7.12502
lthumb 9.56252 11.8532
rfemur -27.0935 -6.17485 25.6887
rtibia 34.9368
rfoot -24.7152 6.48539
rtoes -4.37795
lfemur -45.7904 3.48989 -22.0002
ltibia 64.5377
lfoot -7.60534 4.21595
ltoes -6.86352
245
root 0.127278 16.4903 9.24832 17.3417 2.08638 -0.0827214
lowerback -15.3545 -0.00837221 1.24949
upperback -4.8603 -0.273839 1.77599
thorax 3.45635 -0.128127 1.108
lowerneck -3.66397 -1.37653 -0.501252
upperneck 11.5708 -1.62661 -1.68921
head 4.45665 -0.90524 -0.56132
rclavicle 4.9634e-015 -1.66979e-014
rhumerus -26.304 -7.95055 -82.2958
rradius 35.8088
rwrist -10.6177
rhand -17.4663 -33.1147
rfingers 7.12502
rthumb 8.78536 -62.9118
lclavicle 4.9634e-015 -1.66979e-014
lhumerus -41.6526 15.0212 79.2139
lradius 16.3775
lwrist -19.654
lhand -15.6265 -17.1227
lfingers 7.12502
lthumb 10.5605 12.592
rfemur -26.38 -6.6056 25.8886
rtibia 34.7423
rfoot -25.6494 6.96902
rtoes -6.95643
lfemur -46.6576 3.77961 -22.1413
ltibia 62.5037
lfoot -8.2527 4.52088
ltoes -5.04848
246
root 0.126189 16.483 9.45598 17.4483 1.42353 -0.140567
lowerback -15.4728 0.234516 1.32565
upperback -4.89871 0.0371594 1.66304
thorax 3.4758 0.025094 1.00276
lowerneck -3.67006 -1.34446 -0.560361
upperneck 11.6982 -1.59573 -1.52256
head 4.5064 -0.885132 -0.494556
rclavicle -4.65902e-016 1.11319e-014
rhumerus -25.3048 -6.61943 -82.7226
rradius 37.4825
rwrist -10.9279
rhand -16.0957 -34.4066
rfingers 7.12502
rthumb 10.1078 -64.1438
lclavicle -4.65902e-016 1.11319e-014
lhumerus -42.9402 17.2115 76.9799
lradius 15.2287
lwrist -23.0859
lhand -14.3822 -16.0156
lfingers 7.12502
lthumb 11.7606 13.6342
rfemur -25.5237 -6.79981 25.8556
rtibia 34.4245
rfoot -26.4451 7.00735
rtoes -10.2095
lfemur -47.2829 4.18839 -22.471
ltibia 60.1178
lfoot -8.80376 4.95581
ltoes -4.04781
247
root 0.127333 16.481 9.66452 17.465 0.990831 0.0547451
lowerback -15.6962 0.332247 1.19071
upperback -4.7278 0.18456 1.49936
thorax 3.77477 0.0978782 0.93654
lowerneck -3.83394 -1.30238 -0.448244
upperneck 11.634 -1.54512 -1.54037
head 4.51523 -0.856336 -0.518994
rclavicle 6.70898e-015 2.38542e-015
rhumerus -24.1063 -5.13035 -83.1118
rradius 39.3116
rwrist -11.7206
rhand -16.5833 -35.7712
rfingers 7.12502
rthumb 9.63739 -65.5308
lclavicle 6.70898e-015 2.38542e-015
lhumerus -44.2358 20.1857 74.0367
lradius 13.9658
lwrist -27.3245
lhand -13.662 -15.5369
lfingers 7.12502
lthumb 12.455 14.072
rfemur -24.503 -7.38598 25.5931
rtibia 34.1086
rfoot -27.1451 7.11976
rtoes -11.8002
lfemur -47.6549 4.31213 -22.9906
ltibia 57.4075
lfoot -9.22558 5.4836
ltoes -4.69566
248
root 0.126712 16.4732 9.8615 17.6753 0.89536 0.175768
lowerback -15.8077 0.295009 1.07966
upperback -4.69874 0.152788 1.43036
thorax 3.86542 0.0818605 0.921866
lowerneck -3.95618 -1.25017 -0.467476
upperneck 11.5189 -1.47767 -1.50203
head 4.4988 -0.821932 -0.499337
rclavicle -4.17448e-015 -5.56597e-015
rhumerus -22.7898 -3.49132 -83.4255
rradius 41.2226
rwrist -13.6154
rhand -18.4319 -35.5966
rfingers 7.12502
rthumb 7.85353 -65.4308
lclavicle -4.17448e-015 -5.56597e-015
lhumerus -45.7697 22.0958 71.7596
lradius 13.3865
lwrist -29.7094
lhand -13.277 -15.4176
lfingers 7.12502
lthumb 12.8262 14.1683
rfemur -23.7163 -8.04659 25.4829
rtibia 33.7099
rfoot -27.7103 7.28199
rtoes -12.6065
lfemur -48.2293 4.27018 -23.3779
ltibia 54.4734
lfoot -9.10937 5.82272
ltoes -6.38397
